# xmcd
#
# Track frame offsets: 
#        150
#        10482
#        31260
#        50057
#        71067
#        87278
#        108781
#        122724
#        140661
#        156556
#        187646
#        207391
#        225926
#        241074
#
# Disc length: 3431 seconds
#
# Revision: 0
# Processed by: cddbd v1.5.2PL0 Copyright (c) Steve Scherf et al.
# Submitted via: ExactAudioCopy v1.0b3
#
DISCID=b80d650e
DTITLE=FUN. - Some Nights
DYEAR=2012
DGENRE=Pop
TTITLE0=Some Nights （Intro）
TTITLE1=Some Nights
TTITLE2=We Are Young （featuring Janelle Monae）
TTITLE3=Carry On
TTITLE4=It Gets Better
TTITLE5=Why Am I the One
TTITLE6=All Alone
TTITLE7=All Alright
TTITLE8=One Foot
TTITLE9=Stars
TTITLE10=Out on the Town
TTITLE11=At Least I'm Not as Sad（As I Used to Be）
TTITLE12=All The Pretty Girls
TTITLE13=Walking the Dog
EXTD=
EXTT0=
EXTT1=
EXTT2=
EXTT3=
EXTT4=
EXTT5=
EXTT6=
EXTT7=
EXTT8=
EXTT9=
EXTT10=
EXTT11=
EXTT12=
EXTT13=
PLAYORDER=
